<?xml version="1.0" encoding="utf-8"?>
<!-- Generator: Adobe Illustrator 24.1.0, SVG Export Plug-In . SVG Version: 6.00 Build 0)  -->
<svg version="1.1" id="Layer_1" xmlns="http://www.w3.org/2000/svg" xmlns:xlink="http://www.w3.org/1999/xlink" x="0px" y="0px"
	 viewBox="0 0 35.6 35.6" style="enable-background:new 0 0 35.6 35.6;" xml:space="preserve">
<style type="text/css">
	.st0{fill:#CC0033;}
	.st1{fill:#FFFFFF;}
</style>
<path class="st0" d="M29.6,0H6c0,0-6,0-6,6v23.6c0,0,0,6,6,6h29.6V6C35.6,6,35.6,0,29.6,0z"/>
<path class="st1" d="M31.7,14.3c-0.2,1.2-1.3,2.6-2.8,3.4c-1.6,0.9-3.1,0.8-3.6-0.1c1.1-1.3,1.9-2.7,2.3-4c0.2-0.7,0.2-1.4,0.1-2.1
	c-0.5-2.9-4.2-3.4-8.2-1.2L19,7.5l-4.2,2.3l0.7,3.6c0.4-0.3,0.9-0.4,1.3-0.5c1.3-0.1,1.7,1.3,0.9,3.3c-0.3,0.7-0.7,1.3-1.2,1.9
	l0.8,4.2v0.1c0.6,2.8,4.3,3.3,8.3,1.1C29.3,21.2,32.1,17.2,31.7,14.3z M13.5,19.9c-1.3,0.1-1.7-1.3-0.9-3.3c0.4-0.8,0.9-1.5,1.4-2.1
	l-0.8-3.9l-8.3,4.6l2.4,12.5l8.3-4.6l-0.7-3.8C14.4,19.6,13.9,19.8,13.5,19.9z"/>
</svg>
